<?xml version="1.0" standalone="no"?>
<!DOCTYPE svg PUBLIC "-//W3C//DTD SVG 20010904//EN"
 "http://www.w3.org/TR/2001/REC-SVG-20010904/DTD/svg10.dtd">
<svg version="1.0" xmlns="http://www.w3.org/2000/svg"
 width="200.000000pt" height="200.000000pt" viewBox="0 0 200.000000 200.000000"
 preserveAspectRatio="xMidYMid meet">
<metadata>
Created by potrace 1.10, written by Peter Selinger 2001-2011
</metadata>
<g transform="translate(0.000000,200.000000) scale(0.100000,-0.100000)"
fill="#000000" stroke="none">
<path d="M281 1294 l-30 -57 -1 -296 c-1 -163 1 -295 4 -293 3 1 22 2 41 2
l35 0 0 350 c0 208 -4 350 -9 350 -5 0 -23 -25 -40 -56z"/>
<path d="M379 1346 c-2 -2 -3 -161 -1 -353 l2 -348 40 0 40 0 0 296 0 295 -31
57 c-28 53 -39 64 -50 53z"/>
<path d="M1583 1293 l-33 -56 0 -293 0 -294 43 0 42 0 -2 347 c-1 191 -5 349
-10 350 -4 1 -23 -23 -40 -54z"/>
<path d="M1680 1000 l0 -350 43 0 42 0 -2 290 -1 290 -29 59 c-51 108 -53 96
-53 -289z"/>
<path d="M508 1174 c-2 -1 -2 -57 0 -123 l3 -121 40 0 39 0 0 85 0 86 -40 38
c-22 21 -41 37 -42 35z"/>
<path d="M1458 1138 c-38 -40 -38 -41 -38 -125 l0 -84 40 3 40 3 3 123 c1 67
0 121 -3 121 -3 -1 -22 -20 -42 -41z"/>
<path d="M158 1126 c-34 -39 -37 -46 -39 -116 l-2 -74 41 -2 42 -2 0 119 c0
65 -1 119 -2 118 -2 0 -20 -20 -40 -43z m22 -80 c0 -54 -8 -76 -26 -76 -18 0
-19 91 -2 108 21 21 28 13 28 -32z"/>
<path d="M1812 1053 l3 -116 40 -1 39 -1 1 75 0 74 -43 43 -43 43 3 -117z m56
-26 c2 -46 0 -57 -13 -57 -12 0 -15 13 -15 61 0 81 24 77 28 -4z"/>
<path d="M640 999 l0 -69 40 0 40 0 0 48 c0 45 -2 48 -40 69 l-40 21 0 -69z"/>
<path d="M1328 1046 c-36 -20 -38 -24 -38 -69 l0 -48 41 3 42 3 2 68 c1 37 -1
67 -4 66 -3 -1 -23 -11 -43 -23z"/>
<path d="M770 966 c0 -35 1 -36 40 -36 36 0 40 3 40 24 0 17 -7 27 -22 31 -61
17 -58 18 -58 -19z"/>
<path d="M1193 988 c-25 -8 -33 -17 -33 -35 0 -22 3 -24 41 -21 39 3 42 5 44
36 3 35 -1 36 -52 20z"/>
<path d="M900 951 c0 -18 6 -21 39 -21 22 0 42 4 46 9 7 13 -2 18 -48 26 -33
7 -37 5 -37 -14z"/>
<path d="M1058 963 c-16 -3 -28 -11 -28 -19 0 -23 84 -15 88 9 4 17 -3 19 -60
10z"/>
<path d="M118 850 c4 -39 5 -40 43 -40 39 0 39 0 39 40 l0 40 -43 0 -43 0 4
-40z"/>
<path d="M510 850 l0 -40 494 0 494 0 4 40 4 40 -498 0 -498 0 0 -40z m958 2
c3 -10 -90 -12 -462 -12 -413 1 -501 5 -453 23 6 3 214 4 461 3 353 -1 450 -4
454 -14z"/>
<path d="M1810 850 l0 -40 43 0 43 0 1 40 2 40 -45 0 -44 0 0 -40z"/>
</g>
</svg>
