<svg width="1416" height="117.75" viewBox="0 0 1416 117.75" xmlns="http://www.w3.org/2000/svg">
	<g id="svgGroup" stroke-linecap="round" fill-rule="evenodd" font-size="9pt" stroke="#000" stroke-width="0.25mm" fill="none" style="stroke:#000;stroke-width:0.25mm;fill:none">
		<path d="M 23.7 115.95 L 0 115.95 L 0 12.6 L 22.05 12.6 A 70.306 70.306 0 0 1 37.036 14.108 Q 48.754 16.664 57.15 23.55 A 30.866 30.866 0 0 1 65.794 35.468 Q 70.5 46.383 70.5 63.75 A 100.269 100.269 0 0 1 69.575 77.907 Q 66.967 96.134 57 104.55 Q 43.5 115.95 23.7 115.95 Z M 25.2 23.25 L 13.05 23.25 L 13.05 105.45 L 25.35 105.45 A 31.695 31.695 0 0 0 37.594 103.144 A 29.695 29.695 0 0 0 47.625 96.225 A 25.699 25.699 0 0 0 52.865 87.839 Q 56.55 78.69 56.55 63.75 A 99.583 99.583 0 0 0 56.147 54.469 Q 55.267 45.105 52.47 39.043 A 27.359 27.359 0 0 0 51.975 38.025 Q 48.587 31.416 44.006 28.097 A 17.72 17.72 0 0 0 40.65 26.175 A 34.982 34.982 0 0 0 31.575 23.679 A 45.72 45.72 0 0 0 25.2 23.25 Z" id="0" vector-effect="non-scaling-stroke"/>
		<path d="M 155.7 108.75 L 152.55 117.75 A 22.447 22.447 0 0 1 146.741 116.254 A 14.42 14.42 0 0 1 138.15 106.5 Q 133.95 111.9 127.575 114.75 Q 121.2 117.6 113.4 117.6 A 34.366 34.366 0 0 1 105.689 116.785 Q 99.151 115.28 94.725 111 A 21.979 21.979 0 0 1 88.3 98.413 A 31.367 31.367 0 0 1 87.9 93.3 Q 87.9 81.15 97.425 74.55 Q 104.354 69.749 115.687 68.441 A 79.612 79.612 0 0 1 124.8 67.95 L 136.5 67.95 L 136.5 61.5 Q 136.5 53.1 131.7 49.425 A 15.751 15.751 0 0 0 126.902 46.987 Q 123.058 45.75 117.75 45.75 A 48.564 48.564 0 0 0 109.387 46.526 Q 105.475 47.211 101.182 48.502 A 92.764 92.764 0 0 0 97.2 49.8 L 93.75 40.2 A 92.739 92.739 0 0 1 106.4 36.647 A 67.263 67.263 0 0 1 119.7 35.25 A 49.257 49.257 0 0 1 128.033 35.91 Q 136.467 37.36 141.675 42 A 22.114 22.114 0 0 1 148.769 55.037 A 32.457 32.457 0 0 1 149.25 60.75 L 149.25 98.7 Q 149.25 102.885 150.465 105.065 A 5.676 5.676 0 0 0 150.75 105.525 Q 152.039 107.395 154.768 108.433 A 14.464 14.464 0 0 0 155.7 108.75 Z M 136.5 96.9 L 136.5 76.65 L 125.1 76.65 A 60.122 60.122 0 0 0 118.904 76.947 Q 112.574 77.605 108.699 79.726 A 14.143 14.143 0 0 0 106.95 80.85 A 13.63 13.63 0 0 0 101.629 90.021 A 20.524 20.524 0 0 0 101.4 93.15 A 21.392 21.392 0 0 0 102.151 99.086 Q 104.773 108.15 116.55 108.15 Q 122.4 108.15 127.725 105.15 Q 133.05 102.15 136.5 96.9 Z" id="1" vector-effect="non-scaling-stroke"/>
		<path d="M 248.55 36.9 L 219.75 115.95 L 205.2 115.95 L 176.55 36.9 L 190.05 36.9 L 212.85 104.55 L 235.35 36.9 L 248.55 36.9 Z" id="2" vector-effect="non-scaling-stroke"/>
		<path d="M 326.7 100.05 L 332.55 108.45 A 41.866 41.866 0 0 1 320.869 114.853 A 47.517 47.517 0 0 1 319.875 115.2 Q 312.75 117.6 305.55 117.6 A 41.95 41.95 0 0 1 294.238 116.157 A 30.411 30.411 0 0 1 278.925 106.425 Q 269.893 95.829 269.426 78.421 A 71.547 71.547 0 0 1 269.4 76.5 A 57.309 57.309 0 0 1 270.585 64.608 A 46.134 46.134 0 0 1 273.6 55.275 A 36.438 36.438 0 0 1 279.857 45.57 A 32.505 32.505 0 0 1 285.6 40.575 A 30.673 30.673 0 0 1 300.889 35.356 A 38.267 38.267 0 0 1 303.75 35.25 A 34.691 34.691 0 0 1 314.3 36.778 A 27.478 27.478 0 0 1 327.375 45.675 Q 336 56.1 336 74.1 Q 336 77.55 335.7 80.85 L 282.6 80.85 A 44.411 44.411 0 0 0 283.46 88.377 Q 285.042 95.963 289.425 100.5 A 21.322 21.322 0 0 0 304.793 107.09 A 28.235 28.235 0 0 0 305.55 107.1 A 34.573 34.573 0 0 0 312.153 106.492 A 28.814 28.814 0 0 0 316.275 105.375 A 41.244 41.244 0 0 0 320.994 103.346 Q 323.321 102.179 325.783 100.635 A 70.45 70.45 0 0 0 326.7 100.05 Z M 282.6 71.25 L 323.7 71.25 A 48.183 48.183 0 0 0 323.108 64.04 Q 322.509 60.389 321.307 57.429 A 21.076 21.076 0 0 0 318.3 52.2 A 17.01 17.01 0 0 0 305.855 45.679 A 23.702 23.702 0 0 0 303.9 45.6 Q 294.75 45.6 289.05 52.125 A 22.834 22.834 0 0 0 284.955 59.141 Q 283.758 62.301 283.142 66.173 A 51.935 51.935 0 0 0 282.6 71.25 Z" id="3" vector-effect="non-scaling-stroke"/>
		<path d="M 444 104.55 L 451.8 95.7 Q 457.5 101.1 464.475 103.95 A 37.651 37.651 0 0 0 473.472 106.33 A 49.775 49.775 0 0 0 480.45 106.8 A 34.764 34.764 0 0 0 488.4 105.936 A 25.509 25.509 0 0 0 497.55 101.85 A 15.957 15.957 0 0 0 504.31 90.164 A 22.759 22.759 0 0 0 504.45 87.6 A 23.367 23.367 0 0 0 504.176 83.916 Q 503.719 81.057 502.5 78.9 A 12.776 12.776 0 0 0 500.183 75.976 Q 498.999 74.842 497.428 73.807 A 26.763 26.763 0 0 0 495.675 72.75 A 39.8 39.8 0 0 0 492.24 71.078 Q 488.314 69.375 482.75 67.734 A 132.496 132.496 0 0 0 481.95 67.5 Q 465.15 62.55 456.9 55.875 A 21.711 21.711 0 0 1 448.735 39.946 A 30.375 30.375 0 0 1 448.65 37.65 Q 448.65 30 452.85 23.85 Q 457.05 17.7 464.7 14.325 A 39.284 39.284 0 0 1 475.363 11.386 A 50.397 50.397 0 0 1 482.1 10.95 Q 492.3 10.95 500.325 13.95 Q 508.35 16.95 515.1 22.8 L 507.3 31.2 Q 496.65 21.9 482.55 21.9 A 34.311 34.311 0 0 0 476.243 22.449 Q 471.356 23.363 467.7 25.8 A 12.481 12.481 0 0 0 462.007 34.836 A 17.176 17.176 0 0 0 461.85 37.2 A 14.026 14.026 0 0 0 462.36 41.062 A 11.314 11.314 0 0 0 464.25 44.85 A 14.3 14.3 0 0 0 466.493 47.15 Q 468.731 49.013 472.2 50.7 A 55.96 55.96 0 0 0 476.108 52.403 Q 480.891 54.291 487.8 56.25 A 87.565 87.565 0 0 1 497.014 59.439 Q 505.057 62.771 510.225 67.2 A 21.534 21.534 0 0 1 516.993 78.216 Q 517.962 81.784 518.083 86.063 A 43.721 43.721 0 0 1 518.1 87.3 Q 518.1 96.3 513.6 103.125 A 27.869 27.869 0 0 1 505.039 111.387 A 35.95 35.95 0 0 1 500.55 113.775 A 42.169 42.169 0 0 1 490.577 116.76 Q 485.784 117.6 480.3 117.6 A 65.045 65.045 0 0 1 468.284 116.533 A 53.092 53.092 0 0 1 459.825 114.225 A 46.434 46.434 0 0 1 447.92 107.863 A 42.42 42.42 0 0 1 444 104.55 Z" id="5" vector-effect="non-scaling-stroke"/>
		<path d="M 572.7 35.25 Q 589.05 35.25 597.825 46.275 A 37.662 37.662 0 0 1 604.474 59.542 Q 606.035 65 606.45 71.506 A 76.181 76.181 0 0 1 606.6 76.35 A 63.193 63.193 0 0 1 605.447 88.78 Q 603.393 99.02 597.675 106.275 A 29.072 29.072 0 0 1 577.081 117.364 A 42.172 42.172 0 0 1 572.55 117.6 A 38.678 38.678 0 0 1 561.874 116.207 A 28.109 28.109 0 0 1 547.35 106.575 A 37.646 37.646 0 0 1 540.576 93.072 Q 538.5 85.728 538.5 76.5 A 63.941 63.941 0 0 1 539.64 64.055 Q 541.69 53.729 547.425 46.5 A 29.047 29.047 0 0 1 567.299 35.583 A 42.443 42.443 0 0 1 572.7 35.25 Z M 572.7 45.6 A 22.069 22.069 0 0 0 566.272 46.484 A 16.244 16.244 0 0 0 557.25 53.25 Q 552.423 60.491 552.165 74.854 A 91.594 91.594 0 0 0 552.15 76.5 A 77.543 77.543 0 0 0 552.547 84.641 Q 553.431 92.985 556.281 98.191 A 20.406 20.406 0 0 0 557.175 99.675 A 16.365 16.365 0 0 0 569.149 107.027 A 24.874 24.874 0 0 0 572.55 107.25 A 22.352 22.352 0 0 0 578.769 106.435 A 16.02 16.02 0 0 0 587.925 99.675 A 24.567 24.567 0 0 0 590.786 93.502 Q 592.95 86.686 592.95 76.35 A 77.543 77.543 0 0 0 592.553 68.21 Q 591.669 59.866 588.819 54.66 A 20.406 20.406 0 0 0 587.925 53.175 A 16.295 16.295 0 0 0 576.053 45.824 A 24.21 24.21 0 0 0 572.7 45.6 Z" id="6" vector-effect="non-scaling-stroke"/>
		<path d="M 699.9 57.15 L 699.9 115.95 L 688.35 115.95 L 688.35 59.25 Q 688.35 51 687.3 48.075 Q 686.311 45.32 682.659 45.16 A 10.517 10.517 0 0 0 682.2 45.15 Q 674.55 45.15 668.4 54.6 L 668.4 115.95 L 656.7 115.95 L 656.7 59.25 Q 656.7 51 655.65 48.075 Q 654.661 45.32 651.009 45.16 A 10.517 10.517 0 0 0 650.55 45.15 Q 642.9 45.15 636.75 54.6 L 636.75 115.95 L 625.2 115.95 L 625.2 36.9 L 634.95 36.9 L 635.85 46.2 A 40.792 40.792 0 0 1 638.954 42.198 Q 641.127 39.748 643.425 38.1 Q 647.4 35.25 652.95 35.25 A 17.649 17.649 0 0 1 658.634 36.104 Q 663.863 37.877 666.306 43.329 A 19.907 19.907 0 0 1 667.2 45.75 Q 670.479 41.105 674.132 38.451 A 21.667 21.667 0 0 1 674.85 37.95 A 15.897 15.897 0 0 1 681.199 35.514 A 21.161 21.161 0 0 1 684.6 35.25 A 15.7 15.7 0 0 1 690.121 36.187 A 13.901 13.901 0 0 1 695.625 39.975 A 12.831 12.831 0 0 1 697.97 43.908 Q 699.47 47.7 699.804 53.598 A 62.925 62.925 0 0 1 699.9 57.15 Z" id="7" vector-effect="non-scaling-stroke"/>
		<path d="M 789.9 57.15 L 789.9 115.95 L 778.35 115.95 L 778.35 59.25 Q 778.35 51 777.3 48.075 Q 776.311 45.32 772.659 45.16 A 10.517 10.517 0 0 0 772.2 45.15 Q 764.55 45.15 758.4 54.6 L 758.4 115.95 L 746.7 115.95 L 746.7 59.25 Q 746.7 51 745.65 48.075 Q 744.661 45.32 741.009 45.16 A 10.517 10.517 0 0 0 740.55 45.15 Q 732.9 45.15 726.75 54.6 L 726.75 115.95 L 715.2 115.95 L 715.2 36.9 L 724.95 36.9 L 725.85 46.2 A 40.792 40.792 0 0 1 728.954 42.198 Q 731.127 39.748 733.425 38.1 Q 737.4 35.25 742.95 35.25 A 17.649 17.649 0 0 1 748.634 36.104 Q 753.863 37.877 756.306 43.329 A 19.907 19.907 0 0 1 757.2 45.75 Q 760.479 41.105 764.132 38.451 A 21.667 21.667 0 0 1 764.85 37.95 A 15.897 15.897 0 0 1 771.199 35.514 A 21.161 21.161 0 0 1 774.6 35.25 A 15.7 15.7 0 0 1 780.121 36.187 A 13.901 13.901 0 0 1 785.625 39.975 A 12.831 12.831 0 0 1 787.97 43.908 Q 789.47 47.7 789.804 53.598 A 62.925 62.925 0 0 1 789.9 57.15 Z" id="8" vector-effect="non-scaling-stroke"/>
		<path d="M 866.7 100.05 L 872.55 108.45 A 41.866 41.866 0 0 1 860.869 114.853 A 47.517 47.517 0 0 1 859.875 115.2 Q 852.75 117.6 845.55 117.6 A 41.95 41.95 0 0 1 834.238 116.157 A 30.411 30.411 0 0 1 818.925 106.425 Q 809.893 95.829 809.426 78.421 A 71.547 71.547 0 0 1 809.4 76.5 A 57.309 57.309 0 0 1 810.585 64.608 A 46.134 46.134 0 0 1 813.6 55.275 A 36.438 36.438 0 0 1 819.857 45.57 A 32.505 32.505 0 0 1 825.6 40.575 A 30.673 30.673 0 0 1 840.889 35.356 A 38.267 38.267 0 0 1 843.75 35.25 A 34.691 34.691 0 0 1 854.3 36.778 A 27.478 27.478 0 0 1 867.375 45.675 Q 876 56.1 876 74.1 Q 876 77.55 875.7 80.85 L 822.6 80.85 A 44.411 44.411 0 0 0 823.46 88.377 Q 825.042 95.963 829.425 100.5 A 21.322 21.322 0 0 0 844.793 107.09 A 28.235 28.235 0 0 0 845.55 107.1 A 34.573 34.573 0 0 0 852.153 106.492 A 28.814 28.814 0 0 0 856.275 105.375 A 41.244 41.244 0 0 0 860.994 103.346 Q 863.321 102.179 865.783 100.635 A 70.45 70.45 0 0 0 866.7 100.05 Z M 822.6 71.25 L 863.7 71.25 A 48.183 48.183 0 0 0 863.108 64.04 Q 862.509 60.389 861.307 57.429 A 21.076 21.076 0 0 0 858.3 52.2 A 17.01 17.01 0 0 0 845.855 45.679 A 23.702 23.702 0 0 0 843.9 45.6 Q 834.75 45.6 829.05 52.125 A 22.834 22.834 0 0 0 824.955 59.141 Q 823.758 62.301 823.142 66.173 A 51.935 51.935 0 0 0 822.6 71.25 Z" id="9" vector-effect="non-scaling-stroke"/>
		<path d="M 967.05 36.9 L 965.25 63.75 L 955.05 63.75 L 955.05 46.8 L 954.3 46.8 Q 938.681 46.8 930.82 65.814 A 70.364 70.364 0 0 0 928.35 72.9 L 928.35 106.2 L 944.4 106.2 L 944.4 115.95 L 903.3 115.95 L 903.3 106.2 L 915.75 106.2 L 915.75 46.65 L 903.3 46.65 L 903.3 36.9 L 925.2 36.9 L 927.6 55.65 A 54.374 54.374 0 0 1 931.464 48.718 Q 933.828 45.157 936.539 42.537 A 28.912 28.912 0 0 1 939.075 40.35 A 24.242 24.242 0 0 1 949.074 35.909 A 34.186 34.186 0 0 1 955.95 35.25 A 34.179 34.179 0 0 1 960.352 35.555 Q 963.457 35.959 967.05 36.9 Z" id="10" vector-effect="non-scaling-stroke"/>
		<path d="M 1058.55 36.9 L 1029.75 115.95 L 1015.2 115.95 L 986.55 36.9 L 1000.05 36.9 L 1022.85 104.55 L 1045.35 36.9 L 1058.55 36.9 Z" id="11" vector-effect="non-scaling-stroke"/>
		<path d="M 1122.6 36.9 L 1122.6 105.9 L 1144.8 105.9 L 1144.8 115.95 L 1085.7 115.95 L 1085.7 105.9 L 1110 105.9 L 1110 46.95 L 1086.45 46.95 L 1086.45 36.9 L 1122.6 36.9 Z M 1115.524 0.363 A 11.564 11.564 0 0 0 1112.55 0 Q 1108.5 0 1106.025 2.475 Q 1103.55 4.95 1103.55 8.85 A 11.363 11.363 0 0 0 1103.605 9.977 A 8.354 8.354 0 0 0 1106.025 15.225 Q 1108.5 17.7 1112.55 17.7 Q 1116.75 17.7 1119.3 15.225 A 8.088 8.088 0 0 0 1121.396 11.887 A 9.746 9.746 0 0 0 1121.85 8.85 Q 1121.85 4.95 1119.3 2.475 A 8.427 8.427 0 0 0 1115.524 0.363 Z" id="12" vector-effect="non-scaling-stroke"/>
		<path d="M 1203.45 5.1 L 1203.45 96.45 A 12.271 12.271 0 0 0 1204.262 101.102 Q 1206.43 106.422 1214.378 107.024 A 28.13 28.13 0 0 0 1216.5 107.1 A 32.224 32.224 0 0 0 1223.496 106.293 A 44.194 44.194 0 0 0 1229.7 104.4 L 1233 113.55 Q 1226.467 117.078 1217.088 117.533 A 58.609 58.609 0 0 1 1214.25 117.6 A 31.441 31.441 0 0 1 1207.005 116.812 A 21.497 21.497 0 0 1 1197.225 111.75 A 19.297 19.297 0 0 1 1191.177 100.189 A 27.66 27.66 0 0 1 1190.85 95.85 L 1190.85 15.15 L 1166.55 15.15 L 1166.55 5.1 L 1203.45 5.1 Z" id="13" vector-effect="non-scaling-stroke"/>
		<path d="M 1293.45 5.1 L 1293.45 96.45 A 12.271 12.271 0 0 0 1294.262 101.102 Q 1296.43 106.422 1304.378 107.024 A 28.13 28.13 0 0 0 1306.5 107.1 A 32.224 32.224 0 0 0 1313.496 106.293 A 44.194 44.194 0 0 0 1319.7 104.4 L 1323 113.55 Q 1316.467 117.078 1307.088 117.533 A 58.609 58.609 0 0 1 1304.25 117.6 A 31.441 31.441 0 0 1 1297.005 116.812 A 21.497 21.497 0 0 1 1287.225 111.75 A 19.297 19.297 0 0 1 1281.177 100.189 A 27.66 27.66 0 0 1 1280.85 95.85 L 1280.85 15.15 L 1256.55 15.15 L 1256.55 5.1 L 1293.45 5.1 Z" id="14" vector-effect="non-scaling-stroke"/>
		<path d="M 1406.7 100.05 L 1412.55 108.45 A 41.866 41.866 0 0 1 1400.869 114.853 A 47.517 47.517 0 0 1 1399.875 115.2 Q 1392.75 117.6 1385.55 117.6 A 41.95 41.95 0 0 1 1374.238 116.157 A 30.411 30.411 0 0 1 1358.925 106.425 Q 1349.893 95.829 1349.426 78.421 A 71.547 71.547 0 0 1 1349.4 76.5 A 57.309 57.309 0 0 1 1350.585 64.608 A 46.134 46.134 0 0 1 1353.6 55.275 A 36.438 36.438 0 0 1 1359.857 45.57 A 32.505 32.505 0 0 1 1365.6 40.575 A 30.673 30.673 0 0 1 1380.889 35.356 A 38.267 38.267 0 0 1 1383.75 35.25 A 34.691 34.691 0 0 1 1394.3 36.778 A 27.478 27.478 0 0 1 1407.375 45.675 Q 1416 56.1 1416 74.1 Q 1416 77.55 1415.7 80.85 L 1362.6 80.85 A 44.411 44.411 0 0 0 1363.46 88.377 Q 1365.042 95.963 1369.425 100.5 A 21.322 21.322 0 0 0 1384.793 107.09 A 28.235 28.235 0 0 0 1385.55 107.1 A 34.573 34.573 0 0 0 1392.153 106.492 A 28.814 28.814 0 0 0 1396.275 105.375 A 41.244 41.244 0 0 0 1400.994 103.346 Q 1403.321 102.179 1405.783 100.635 A 70.45 70.45 0 0 0 1406.7 100.05 Z M 1362.6 71.25 L 1403.7 71.25 A 48.183 48.183 0 0 0 1403.108 64.04 Q 1402.509 60.389 1401.307 57.429 A 21.076 21.076 0 0 0 1398.3 52.2 A 17.01 17.01 0 0 0 1385.855 45.679 A 23.702 23.702 0 0 0 1383.9 45.6 Q 1374.75 45.6 1369.05 52.125 A 22.834 22.834 0 0 0 1364.955 59.141 Q 1363.758 62.301 1363.142 66.173 A 51.935 51.935 0 0 0 1362.6 71.25 Z" id="15" vector-effect="non-scaling-stroke"/>
	</g>
</svg>